<?xml version="1.0" encoding="UTF-8"?>
<!DOCTYPE svg PUBLIC "-//W3C//DTD SVG 1.1//EN" "http://www.w3.org/Graphics/SVG/1.1/DTD/svg11.dtd">
<svg xmlns="http://www.w3.org/2000/svg" version="1.1" width="840px" height="269px" style="shape-rendering:geometricPrecision; text-rendering:geometricPrecision; image-rendering:optimizeQuality; fill-rule:evenodd; clip-rule:evenodd" xmlns:xlink="http://www.w3.org/1999/xlink">
<g><path style="opacity:1" fill="#fefefe" d="M -0.5,-0.5 C 279.5,-0.5 559.5,-0.5 839.5,-0.5C 839.5,89.1667 839.5,178.833 839.5,268.5C 559.5,268.5 279.5,268.5 -0.5,268.5C -0.5,178.833 -0.5,89.1667 -0.5,-0.5 Z"/></g>
<g><path style="opacity:1" fill="#189030" d="M 189.5,62.5 C 186.275,77.9572 179.441,91.9572 169,104.5C 164.167,109.333 159.333,114.167 154.5,119C 124.413,137.796 93.9132,155.963 63,173.5C 62.4163,170.743 62.7496,168.077 64,165.5C 72.9318,141.576 88.0984,122.743 109.5,109C 136.393,93.7258 163.06,78.2258 189.5,62.5 Z"/></g>
<g><path style="opacity:1" fill="#8dc221" d="M 198.5,65.5 C 213.577,81.6495 223.41,100.65 228,122.5C 229.621,158.804 229.954,195.137 229,231.5C 208.949,211.048 198.449,186.381 197.5,157.5C 197.169,126.662 197.502,95.9955 198.5,65.5 Z"/></g>
<g><path style="opacity:1" fill="#d6e9af" d="M 198.5,65.5 C 197.502,95.9955 197.169,126.662 197.5,157.5C 196.17,126.664 196.17,95.664 197.5,64.5C 198.107,64.6236 198.44,64.9569 198.5,65.5 Z"/></g>
<g><path style="opacity:1" fill="#e1e764" d="M 485.5,132.5 C 485.5,127.167 485.5,121.833 485.5,116.5C 462.167,116.5 438.833,116.5 415.5,116.5C 415.5,139.833 415.5,163.167 415.5,186.5C 414.502,163.006 414.169,139.339 414.5,115.5C 438.5,115.5 462.5,115.5 486.5,115.5C 486.822,121.358 486.489,127.025 485.5,132.5 Z"/></g>
<g><path style="opacity:1" fill="#e1e763" d="M 568.5,132.5 C 568.5,127.167 568.5,121.833 568.5,116.5C 545.167,116.5 521.833,116.5 498.5,116.5C 498.5,139.833 498.5,163.167 498.5,186.5C 497.502,163.006 497.169,139.339 497.5,115.5C 521.5,115.5 545.5,115.5 569.5,115.5C 569.822,121.358 569.489,127.025 568.5,132.5 Z"/></g>
<g><path style="opacity:1" fill="#ceda0a" d="M 266.5,132.5 C 265.505,144.989 265.171,157.656 265.5,170.5C 279.01,170.829 292.344,170.496 305.5,169.5C 305.5,166.167 305.5,162.833 305.5,159.5C 297.833,159.5 290.167,159.5 282.5,159.5C 282.5,153.833 282.5,148.167 282.5,142.5C 295.833,142.5 309.167,142.5 322.5,142.5C 322.667,153.838 322.5,165.172 322,176.5C 320.932,181.235 318.099,184.402 313.5,186C 294.833,186.667 276.167,186.667 257.5,186C 254.063,184.895 251.563,182.728 250,179.5C 249.333,160.833 249.333,142.167 250,123.5C 251.916,119.915 254.749,117.415 258.5,116C 277.565,115.038 296.565,115.372 315.5,117C 318.473,118.765 320.64,121.265 322,124.5C 322.499,129.155 322.666,133.821 322.5,138.5C 316.833,138.5 311.167,138.5 305.5,138.5C 305.5,136.5 305.5,134.5 305.5,132.5C 292.5,132.5 279.5,132.5 266.5,132.5 Z"/></g>
<g><path style="opacity:1" fill="#ceda0c" d="M 369.5,160.5 C 363.355,159.51 357.022,159.177 350.5,159.5C 350.5,168.5 350.5,177.5 350.5,186.5C 345.167,186.5 339.833,186.5 334.5,186.5C 334.5,162.833 334.5,139.167 334.5,115.5C 354.169,115.333 373.836,115.5 393.5,116C 398.333,117.5 401.5,120.667 403,125.5C 403.667,133.5 403.667,141.5 403,149.5C 400.862,156.658 396.029,159.991 388.5,159.5C 392.274,168.381 396.607,177.048 401.5,185.5C 395.278,186.809 389.111,186.809 383,185.5C 378.488,177.14 373.988,168.806 369.5,160.5 Z"/></g>
<g><path style="opacity:1" fill="#ceda00" d="M 485.5,132.5 C 467.5,132.5 449.5,132.5 431.5,132.5C 431.187,136.042 431.521,139.375 432.5,142.5C 449.992,143.497 467.659,143.83 485.5,143.5C 485.5,148.833 485.5,154.167 485.5,159.5C 467.5,159.5 449.5,159.5 431.5,159.5C 431.187,163.042 431.521,166.375 432.5,169.5C 449.992,170.497 467.659,170.83 485.5,170.5C 485.5,175.833 485.5,181.167 485.5,186.5C 462.167,186.5 438.833,186.5 415.5,186.5C 415.5,163.167 415.5,139.833 415.5,116.5C 438.833,116.5 462.167,116.5 485.5,116.5C 485.5,121.833 485.5,127.167 485.5,132.5 Z"/></g>
<g><path style="opacity:1" fill="#cdda00" d="M 568.5,132.5 C 550.833,132.5 533.167,132.5 515.5,132.5C 514.518,135.962 514.185,139.629 514.5,143.5C 532.5,143.5 550.5,143.5 568.5,143.5C 568.5,148.833 568.5,154.167 568.5,159.5C 550.5,159.5 532.5,159.5 514.5,159.5C 514.5,162.833 514.5,166.167 514.5,169.5C 532.326,170.497 550.326,170.83 568.5,170.5C 568.5,175.833 568.5,181.167 568.5,186.5C 545.167,186.5 521.833,186.5 498.5,186.5C 498.5,163.167 498.5,139.833 498.5,116.5C 521.833,116.5 545.167,116.5 568.5,116.5C 568.5,121.833 568.5,127.167 568.5,132.5 Z"/></g>
<g><path style="opacity:1" fill="#cfda10" d="M 599.5,142.5 C 599.44,141.957 599.107,141.624 598.5,141.5C 597.501,156.485 597.167,171.485 597.5,186.5C 591.833,186.5 586.167,186.5 580.5,186.5C 580.5,162.833 580.5,139.167 580.5,115.5C 587.175,115.334 593.842,115.5 600.5,116C 613.215,131.259 626.048,146.426 639,161.5C 639.5,146.17 639.667,130.837 639.5,115.5C 645.167,115.5 650.833,115.5 656.5,115.5C 656.5,139.167 656.5,162.833 656.5,186.5C 649.825,186.666 643.158,186.5 636.5,186C 623.956,171.627 611.623,157.127 599.5,142.5 Z"/></g>
<g><path style="opacity:1" fill="#cfda0d" d="M 668.5,115.5 C 675.175,115.334 681.842,115.5 688.5,116C 693.672,123.331 699.006,130.498 704.5,137.5C 709.994,130.498 715.328,123.331 720.5,116C 727.192,115.169 733.858,115.336 740.5,116.5C 732.253,127.993 724.253,139.66 716.5,151.5C 724.305,163.138 732.305,174.638 740.5,186C 733.476,186.831 726.476,186.664 719.5,185.5C 714.733,178.286 709.733,171.286 704.5,164.5C 699.255,171.324 694.255,178.324 689.5,185.5C 682.524,186.664 675.524,186.831 668.5,186C 676.695,174.638 684.695,163.138 692.5,151.5C 684.48,139.443 676.48,127.443 668.5,115.5 Z"/></g>
<g><path style="opacity:1" fill="#fefefe" d="M 351.5,132.5 C 363.167,132.5 374.833,132.5 386.5,132.5C 386.5,135.833 386.5,139.167 386.5,142.5C 374.833,142.5 363.167,142.5 351.5,142.5C 351.5,139.167 351.5,135.833 351.5,132.5 Z"/></g>
<g><path style="opacity:1" fill="#e5eb7a" d="M 432.5,142.5 C 450.5,142.5 468.5,142.5 486.5,142.5C 486.5,148.167 486.5,153.833 486.5,159.5C 486.167,159.5 485.833,159.5 485.5,159.5C 485.5,154.167 485.5,148.833 485.5,143.5C 467.659,143.83 449.992,143.497 432.5,142.5 Z"/></g>
<g><path style="opacity:1" fill="#e6ec80" d="M 515.5,132.5 C 515.5,135.833 515.5,139.167 515.5,142.5C 533.5,142.5 551.5,142.5 569.5,142.5C 569.5,148.167 569.5,153.833 569.5,159.5C 569.167,159.5 568.833,159.5 568.5,159.5C 568.5,154.167 568.5,148.833 568.5,143.5C 550.5,143.5 532.5,143.5 514.5,143.5C 514.185,139.629 514.518,135.962 515.5,132.5 Z"/></g>
<g><path style="opacity:1" fill="#f0f4b5" d="M 599.5,142.5 C 598.833,157.167 598.167,171.833 597.5,186.5C 597.167,171.485 597.501,156.485 598.5,141.5C 599.107,141.624 599.44,141.957 599.5,142.5 Z"/></g>
<g><path style="opacity:1" fill="#f2f5bb" d="M 485.5,159.5 C 485.833,159.5 486.167,159.5 486.5,159.5C 468.674,160.497 450.674,160.83 432.5,160.5C 432.5,163.5 432.5,166.5 432.5,169.5C 431.521,166.375 431.187,163.042 431.5,159.5C 449.5,159.5 467.5,159.5 485.5,159.5 Z"/></g>
<g><path style="opacity:1" fill="#f2f5bc" d="M 568.5,159.5 C 568.833,159.5 569.167,159.5 569.5,159.5C 551.674,160.497 533.674,160.83 515.5,160.5C 515.5,163.5 515.5,166.5 515.5,169.5C 515.167,169.5 514.833,169.5 514.5,169.5C 514.5,166.167 514.5,162.833 514.5,159.5C 532.5,159.5 550.5,159.5 568.5,159.5 Z"/></g>
<g><path style="opacity:1" fill="#edf1a1" d="M 369.5,160.5 C 363.5,160.5 357.5,160.5 351.5,160.5C 351.826,169.349 351.493,178.016 350.5,186.5C 350.5,177.5 350.5,168.5 350.5,159.5C 357.022,159.177 363.355,159.51 369.5,160.5 Z"/></g>
<g><path style="opacity:1" fill="#e8ee8c" d="M 266.5,132.5 C 266.5,144.833 266.5,157.167 266.5,169.5C 279.5,169.5 292.5,169.5 305.5,169.5C 292.344,170.496 279.01,170.829 265.5,170.5C 265.171,157.656 265.505,144.989 266.5,132.5 Z"/></g>
<g><path style="opacity:1" fill="#e5eb79" d="M 432.5,169.5 C 450.5,169.5 468.5,169.5 486.5,169.5C 486.822,175.358 486.489,181.025 485.5,186.5C 485.5,181.167 485.5,175.833 485.5,170.5C 467.659,170.83 449.992,170.497 432.5,169.5 Z"/></g>
<g><path style="opacity:1" fill="#e5eb7a" d="M 514.5,169.5 C 514.833,169.5 515.167,169.5 515.5,169.5C 533.5,169.5 551.5,169.5 569.5,169.5C 569.822,175.358 569.489,181.025 568.5,186.5C 568.5,181.167 568.5,175.833 568.5,170.5C 550.326,170.83 532.326,170.497 514.5,169.5 Z"/></g>
<g><path style="opacity:1" fill="#ceda0c" d="M 75.5,177.5 C 100.925,174.63 124.925,179.13 147.5,191C 173.167,206 198.833,221 224.5,236C 202.677,242.267 181.01,241.6 159.5,234C 151.712,230.606 144.045,226.939 136.5,223C 112.5,209 88.5,195 64.5,181C 68.2319,179.658 71.8985,178.491 75.5,177.5 Z"/></g>
</svg>
